<svg width="40" height="40" viewBox="0 0 40 40" fill="none" xmlns="http://www.w3.org/2000/svg">
<g clip-path="url(#clip0_2584_2127)">
<path d="M20 0C31.0457 0 40 8.9543 40 20C40 31.0457 31.0457 40 20 40C8.9543 40 0 31.0457 0 20C0 8.9543 8.9543 0 20 0ZM20 1.56425C9.81821 1.56425 1.56425 9.81821 1.56425 20C1.56425 30.1818 9.81821 38.4358 20 38.4358C30.1818 38.4358 38.4358 30.1818 38.4358 20C38.4358 9.81821 30.1818 1.56425 20 1.56425ZM28.2855 15.8048C28.4632 15.8502 28.6286 15.9351 28.7699 16.0532C28.9105 16.1708 29.0236 16.3183 29.101 16.4852C29.1781 16.6514 29.2179 16.8328 29.2179 17.0252C29.2118 17.3236 29.1035 17.6108 28.9112 17.8377C28.7178 18.0657 28.4516 18.2184 28.1635 18.2681C26.4073 18.5936 24.6336 18.8133 22.8533 18.9262C22.7413 18.9337 22.6319 18.9644 22.5317 19.0164C22.431 19.0685 22.3417 19.1411 22.2691 19.2299C22.1961 19.319 22.1417 19.4226 22.1091 19.5342C22.0929 19.5901 22.0822 19.6475 22.0771 19.699L22.0735 19.771L22.0803 19.8824L22.2308 21.2495C22.4188 22.9317 22.7644 24.5912 23.2615 26.2019L23.455 26.8036L23.6639 27.4046L24.6357 30.0475C24.6921 30.2021 24.7176 30.3664 24.7107 30.531C24.7038 30.6956 24.6646 30.8572 24.5953 31.0065C24.5259 31.1561 24.4277 31.2903 24.3063 31.4013C24.1845 31.5125 24.0418 31.5981 23.9028 31.6468C23.7646 31.7018 23.6176 31.7307 23.4573 31.7318C23.2183 31.7274 22.9858 31.6526 22.7883 31.517C22.6779 31.4411 22.5808 31.3479 22.4942 31.2298L22.411 31.103L22.3522 30.9854L22.104 30.4462C21.4329 28.9793 20.82 27.5419 20.2609 26.1179L20.002 25.4457L19.6677 26.3114C19.4841 26.7761 19.296 27.2394 19.1034 27.7012L18.8113 28.3926L18.361 29.4249L17.8968 30.4492L17.675 30.9048C17.5606 31.2148 17.329 31.4666 17.0307 31.6043C16.731 31.7427 16.3891 31.7544 16.0809 31.6367C15.7739 31.5195 15.5259 31.2838 15.3911 30.9821C15.2983 30.7743 15.264 30.5459 15.2943 30.3059L15.3203 30.1606L15.3595 30.0317L16.3302 27.3916C16.9059 25.8032 17.3292 24.1626 17.5941 22.4963L17.6861 21.8702L17.7641 21.2336L17.9198 19.8734C17.9338 19.7567 17.9242 19.6383 17.8918 19.5256C17.8594 19.4132 17.805 19.3088 17.7319 19.2188C17.6591 19.1293 17.5694 19.0559 17.4684 19.003C17.3676 18.9504 17.2577 18.9192 17.148 18.9115C15.3511 18.7976 13.5625 18.5745 11.7932 18.2436C11.6325 18.2141 11.4794 18.1526 11.3425 18.0627C11.2061 17.9731 11.0887 17.8572 10.997 17.7215C10.9056 17.5863 10.8415 17.4342 10.8084 17.2742C10.7753 17.1143 10.7737 16.9492 10.8025 16.7949C10.8302 16.6331 10.8895 16.4785 10.9769 16.3398C11.0646 16.2009 11.1789 16.0809 11.3132 15.987C11.4479 15.8928 11.6 15.8269 11.7605 15.7931C11.9212 15.7592 12.087 15.7584 12.2431 15.7896C17.3677 16.7525 22.6223 16.7525 27.7414 15.7906C27.9216 15.7544 28.1075 15.7593 28.2855 15.8048ZM22.1944 9.19337C23.4038 10.423 23.4038 12.4139 22.1943 13.6436C20.981 14.8771 19.0109 14.8771 17.7975 13.6436C16.588 12.4139 16.588 10.423 17.7975 9.19338C19.0108 7.95975 20.981 7.95975 22.1944 9.19337Z" fill="white"/>
</g>
<defs>
<clipPath id="clip0_2584_2127">
<rect width="40" height="40" fill="white"/>
</clipPath>
</defs>
</svg>
