<svg xmlns="http://www.w3.org/2000/svg" viewBox="-34 122.4 542 548.6"><style>.st0{fill:#ffe475}.st1{fill:#c26c47}.st2{fill:#49312d}.st3{fill:#604219}.st4{fill:#554d4d}.st5{fill:#635723}.st6{fill:#84712c}.st7{fill:#947158}.st8{fill:#c07e48}.st9{fill:#c98777}.st10{fill:#df9126}.st11{fill:#f68c47}.st12{fill:#fbad23}.st13{fill:#f8b26c}.st14{fill:#eec075}.st15{fill:#f6dc8f}.st16{fill:#ead4b5}.st17{fill:#eaddce}.st18{fill:#fef8cc}.st19{fill:#fefdf4}.st20{fill:#e9e9ea}.st21{fill:#bbbcac}.st22{fill:#c9c0ad}.st23{fill:#d3c8c2}.st24{fill:#afa49f}.st25{fill:#8d7d71}.st26{fill:#b5ad6e}.st27{fill:#787fa0}.st28{fill:#e1afa3}.st29{fill:#d69385}.st30{fill:#c69849}.st31{fill:#faa64c}.st32{fill:#ffd386}.st33{fill:#d1c76d}.st34{fill:#56481c}</style><g id="left-side"><path id="XMLID_418_" d="M165.5 362.6c-.4-1.6-1.4-3.1-2.7-4.1-.1-.8-.8-1.6-1.9-1.3-.1 0-.2.1-.3.1s-.1-.1-.2-.1c-1-.3-1.6.3-1.8 1.1-1.4 1.1-2.2 2.8-2.1 4.7.2 3 3 4.9 5.9 4.7 2.7-.3 3.6-2.8 3.1-5.1zm-3 1.9c-1.3.4-2.7-.6-3-1.8-.2-1 .3-1.8 1.1-2.3.7.5 1.3 1.3 1.7 2.1.2.5.6 1.9.2 2z" class="st0"/><path id="XMLID_417_" d="M237 527.7h-12l-21-12.5-7.7 6.3 25.3 21.7.8 12 14.6 3.5z" class="st1"/><path id="XMLID_416_" d="M196.3 521.5l-12-16.2v12l20 24.5h7l6.8 12 13.9 9.3-1.4 12.8-39 8.7 45.4-3.8v-22.1l-15.5-3.9.1-11.6z" class="st2"/><path id="XMLID_415_" d="M237 172.9l-27.4-14.8-25.9 14.8z" class="st2"/><path id="XMLID_414_" d="M220.3 244.2l-30.2 20.6-43.1-12z" class="st2"/><path id="XMLID_413_" d="M237 186.5l-83.8 10.8 54.1-18.4z" class="st2"/><path id="XMLID_412_" d="M220.3 244.2l16.7-25v33.9z" class="st2"/><path id="XMLID_411_" d="M147 252.8l-22.4 58-26.1-12.4z" class="st2"/><path id="XMLID_410_" d="M98.2 247.2l-26.8-14.6-3 29.1z" class="st2"/><path id="XMLID_409_" d="M71.4 232.6v-43.7l-36.1-14.4z" class="st2"/><path id="XMLID_408_" d="M124.6 310.8v37h-22.9z" class="st2"/><path id="XMLID_407_" d="M126.2 373.4l-24.5 16.1v-21.9z" class="st2"/><path id="XMLID_406_" d="M87.7 347.8L80 317.5l-14.7 50.7z" class="st2"/><path id="XMLID_405_" d="M52.4 325.2v35.7L30.9 365z" class="st2"/><path id="XMLID_404_" d="M135.7 410.5l-21.3-8.8 6.1 24.5z" class="st2"/><path id="XMLID_403_" d="M68.7 413.9l1.3 48.5 34 15.4z" class="st2"/><path id="XMLID_402_" d="M40.6 449.1l31.1 35.4-19.3 58z" class="st2"/><path id="XMLID_401_" d="M191.6 584.6l-40.3-3.4 15.7 21.7z" class="st2"/><path id="XMLID_400_" d="M237 172.9l-12-6.5 12-14.3z" class="st3"/><path id="XMLID_399_" d="M237 186.5v32.7l-18.7-30.3z" class="st3"/><path id="XMLID_398_" d="M147 252.8l5.7-28-39.6 29.7z" class="st3"/><path id="XMLID_397_" d="M71.4 232.6l-3 29.1-13.1-20.5z" class="st3"/><path id="XMLID_396_" d="M52.4 325.2l12.4-3.4-12.4 39.1z" class="st3"/><path id="XMLID_395_" d="M65.3 368.2l13.4 21.5 9-41.9z" class="st3"/><path id="XMLID_394_" d="M126.2 373.4l-11.8 28.3-12.7-12.2z" class="st3"/><path id="XMLID_393_" d="M52.4 360.9l-10.8 32.9L30.9 365z" class="st3"/><path id="XMLID_392_" d="M78.7 389.7l-10 24.2 22 39.9z" class="st3"/><path id="XMLID_391_" d="M120 508.8l-10.6 17.9 22.1 35z" class="st3"/><path id="XMLID_390_" d="M219 206.5l-24.5-3.3-47.5 49.6z" class="st3"/><path id="XMLID_389_" d="M52.4 325.2l27.3-39 .3 31.3z" class="st4"/><path id="XMLID_388_" d="M41.6 393.8l-1 55.3-14.3-8.3z" class="st4"/><path id="XMLID_387_" d="M90.7 453.8l47.6 1.4-51.3-21z" class="st4"/><path id="XMLID_386_" d="M71.7 484.5l9.5 28.7-28.8 29.3z" class="st4"/><path id="XMLID_385_" d="M120 508.8l-38.8 4.4 28.2 13.5z" class="st4"/><path id="XMLID_384_" d="M124.6 310.8l36.5 27.3-13.5-24.9z" class="st4"/><path id="XMLID_383_" d="M35.3 174.5l20 66.7 16.1-8.6z" class="st4"/><path id="XMLID_382_" d="M55.3 241.2l-11.4 20.9-7.7-26.4z" class="st5"/><path id="XMLID_381_" d="M30.9 365l10.7 28.8-15.3 47z" class="st6"/><path id="XMLID_380_" d="M65.3 368.2l3.4 45.7 10-24.2z" class="st6"/><path id="XMLID_379_" d="M81.2 513.2l22.8-35.4 16 31z" class="st6"/><path id="XMLID_378_" d="M104 477.8l63-41.6-34 48.3z" class="st6"/><path id="XMLID_377_" d="M40.6 449.1l-14.3 48.4 26.1 45z" class="st4"/><path id="XMLID_376_" d="M113.1 254.5l-14.6 43.9-18.8-12.2z" class="st6"/><path id="XMLID_375_" d="M147 252.8l-48.5 45.6 14.6-43.9z" class="st7"/><path id="XMLID_374_" d="M237 219.2l-18.7-30.3 2 55.3z" class="st7"/><path id="XMLID_373_" d="M142.8 517.8l28.7 1.4 4.2 21.6z" class="st7"/><path id="XMLID_372_" d="M192.6 386.6l-3.3 42.6-21-23.7z" class="st8"/><path id="XMLID_371_" d="M213 400.4l-21.8-48 29.1-4.6z" class="st8"/><path id="XMLID_370_" d="M213 400.4v75.1l-14.9-21.6z" class="st8"/><path id="XMLID_369_" d="M198.1 453.9l-18 23.3 32.9-1.7z" class="st7"/><path id="XMLID_368_" d="M180.1 477.2l4.2 28.1 28.7-29.8z" class="st8"/><path id="XMLID_367_" d="M168.3 405.5l-1.3 30.7 22.3-7z" class="st9"/><path id="XMLID_366_" d="M237 317.5l-16.7 30.3 16.7 35.7z" class="st10"/><path id="XMLID_365_" d="M167 436.2l13.1 41-47.1 7.3z" class="st10"/><path id="XMLID_364_" d="M189.3 429.2l8.8 24.7-31.1-17.7z" class="st10"/><path id="XMLID_363_" d="M192.6 386.6l20.4 13.8-23.7 28.8z" class="st10"/><path id="XMLID_362_" d="M213 400.4l-21.8-48 1.4 34.2z" class="st11"/><path id="XMLID_361_" d="M167 436.2l31.1 17.7-18 23.3z" class="st11"/><path id="XMLID_360_" d="M135.7 410.5l17.6-19.5 15 14.5z" class="st11"/><path id="XMLID_359_" d="M180.1 477.2l-8.6 42 12.8-13.9z" class="st11"/><path id="XMLID_358_" d="M153.3 391l-27.1-17.6 9.5 37.1z" class="st12"/><path id="XMLID_357_" d="M180.1 477.2l-37.3 40.6-9.8-33.3z" class="st12"/><path id="XMLID_356_" d="M220.3 347.8l-14.5-46-14.6 50.6z" class="st12"/><path id="XMLID_355_" d="M220.3 347.8l2.7-37.3 14 7z" class="st12"/><path id="XMLID_354_" d="M168.3 405.5l-1.3 30.7-31.3-25.7z" class="st12"/><path id="XMLID_353_" d="M180.1 477.2l-8.6 42-28.7-1.4z" class="st13"/><path id="XMLID_352_" d="M167 436.2l-31.3-25.7 2.6 44.6z" class="st13"/><path id="XMLID_351_" d="M126.2 373.4l-1.6-25.6h-22.9z" class="st13"/><path id="XMLID_350_" d="M205.8 301.8l31.2 15.7v-64.4z" class="st13"/><path id="XMLID_349_" d="M237 253.1l-16.7-8.9-14.5 57.6z" class="st14"/><path id="XMLID_348_" d="M213 475.5l-9 39.7-7.7 6.3-12-16.2z" class="st14"/><path id="XMLID_347_" d="M126.2 373.4l9.5 37.1-21.3-8.8z" class="st14"/><path id="XMLID_346_" d="M194.5 203.2l-41.8 21.6-5.7 28z" class="st14"/><path id="XMLID_345_" d="M98.5 298.4L80 317.5l-.3-31.3z" class="st14"/><path id="XMLID_344_" d="M220.3 244.2l-14.5 57.6-15.7-37z" class="st15"/><path id="XMLID_343_" d="M98.5 298.4l26.1 12.4-44.6 6.7z" class="st15"/><path id="XMLID_342_" d="M101.7 347.8v41.7l-14-41.7z" class="st15"/><path id="XMLID_341_" d="M80 317.5l-28 44.8 12.8-40.5z" class="st15"/><path id="XMLID_340_" d="M147 252.8l72-46.3 1.3 37.7z" class="st15"/><path id="XMLID_338_" d="M131.5 561.7l44.2-20.9-32.9-23z" class="st15"/><path id="XMLID_337_" d="M79.7 286.2l-37.5 10.1 10.2 28.9z" class="st15"/><path id="XMLID_336_" d="M98.2 247.2l14.9 7.3-44.7 7.2z" class="st15"/><path id="XMLID_335_" d="M101.7 347.8L80 317.5l7.7 30.3z" class="st16"/><path id="XMLID_334_" d="M189.3 291.8l1.9 60.6-19.9 5.6z" class="st16"/><path id="XMLID_333_" d="M101.7 389.5l-23 .2 9-41.9z" class="st16"/><path id="XMLID_332_" d="M135.7 410.5l2.6 44.6-17.8-28.9z" class="st16"/><path id="XMLID_331_" d="M-6 550.2l58.4-7.7-26.1-45z" class="st16"/><path id="XMLID_330_" d="M109.4 526.7l-30.9 34.2 2.7-47.7z" class="st16"/><path id="XMLID_329_" d="M79.7 286.2l-.3-.6-11-23.9-26.2 34.6z" class="st16"/><path id="XMLID_328_" d="M52.4 325.2L8.8 340l22.1 25z" class="st16"/><path id="XMLID_327_" d="M42.2 296.3l10.2 28.9L8.8 340z" class="st17"/><path id="XMLID_326_" d="M101.7 347.8L80 317.5l44.6-6.7z" class="st17"/><path id="XMLID_325_" d="M136.1 357l-9.9 16.4-1.6-25.6z" class="st17"/><path id="XMLID_324_" d="M171.3 358l19.9-5.6 1.4 34.2z" class="st17"/><path id="XMLID_323_" d="M171.3 358l-10.2-19.9-11.3 7z" class="st17"/><path id="XMLID_322_" d="M189.3 291.8l.8-27 15.7 37z" class="st17"/><path id="XMLID_321_" d="M147 252.8l.6 60.4-23-2.4z" class="st17"/><path id="XMLID_320_" d="M219 206.5l-65.8-9.2 65.1-8.4z" class="st17"/><path id="XMLID_319_" d="M133 484.5l9.8 33.3-22.8-9z" class="st17"/><path id="XMLID_318_" d="M26.3 440.8v56.7l-60.3-9.8z" class="st17"/><path id="XMLID_317_" d="M147 252.8l30.9 30.5-30.3 29.9z" class="st18"/><path id="XMLID_316_" d="M190.1 264.8l-12.2 18.5 11.4 8.5z" class="st18"/><path id="XMLID_315_" d="M189.3 291.8l16.5 10-14.6 50.6z" class="st18"/><path id="XMLID_314_" d="M161.1 299.9v38.2l12-23.2z" class="st18"/><path id="XMLID_313_" d="M8.8 340l22.1 25-37.5 17.5z" class="st18"/><path id="XMLID_312_" d="M-6.6 382.5l32.9 58.3-51 3.2z" class="st18"/><path id="XMLID_311_" d="M101.7 389.5L87 434.2l-8.3-44.5z" class="st18"/><path id="XMLID_310_" d="M87 434.2l27.4-32.5 6.1 24.5z" class="st18"/><path id="XMLID_309_" d="M68.7 413.9l-27.1-20.1-1 55.3z" class="st18"/><path id="XMLID_308_" d="M133 484.5l-29-6.7 16 31z" class="st18"/><path id="XMLID_307_" d="M120 508.8l22.8 9-11.3 43.9z" class="st19"/><path id="XMLID_306_" d="M30.9 365l-4.6 75.8-32.9-58.3z" class="st20"/><path id="XMLID_305_" d="M41.6 393.8l23.7-25.6 3.4 45.7z" class="st20"/><path id="XMLID_304_" d="M68.7 413.9l1.3 48.5-29.4-13.3z" class="st20"/><path id="XMLID_303_" d="M114.4 401.7l-12.7-12.2L87 434.2z" class="st20"/><path id="XMLID_302_" d="M120.5 426.2l17.8 28.9L87 434.2z" class="st20"/><path id="XMLID_301_" d="M153.3 391l18.5-7.1-3.5 21.6z" class="st20"/><path id="XMLID_300_" d="M124.6 310.8l13.7 25-13.7 12z" class="st20"/><path id="XMLID_299_" d="M190.1 264.8l-43.1-12 30.9 30.5z" class="st20"/><path id="XMLID_298_" d="M-14.6 443.4l8 23 32.9-25.6z" class="st20"/><path id="XMLID_297_" d="M184.3 505.3v12l20 24.5-28.6-1-4.2-21.6z" class="st20"/><path id="XMLID_296_" d="M138.3 455.1L104 477.8l-13.3-24z" class="st21"/><path id="XMLID_295_" d="M104 477.8l-32.3 6.7-31.1-35.4z" class="st21"/><path id="XMLID_294_" d="M26.3 497.5L-6 550.2l-8.6-59.4z" class="st21"/><path id="XMLID_293_" d="M65.3 368.2L52 362.3l28-44.8z" class="st21"/><path id="XMLID_292_" d="M161.1 338.1l12-23.2-1.8 43.1z" class="st21"/><path id="XMLID_291_" d="M149.8 345.1l-11.5-9.3-13.7 12z" class="st21"/><path id="XMLID_290_" d="M173.1 314.9l16.2-23.1-28.2 8.1z" class="st21"/><path id="XMLID_289_" d="M40.6 449.1l-14.3-8.3v56.7z" class="st21"/><path id="XMLID_288_" d="M81.2 513.2l-2.7 47.7-26.1-18.4z" class="st21"/><path id="XMLID_287_" d="M52.4 542.5L9 584.6v-36.4z" class="st21"/><path id="XMLID_286_" d="M175.7 540.8l-24.4 40.4 40.3 3.4z" class="st21"/><path id="XMLID_285_" d="M204.3 541.8l-12.7 42.8 26.5-30.8-6.8-12z" class="st21"/><path id="XMLID_284_" d="M192.2 596.7l-6.7 45.8 51.5-31.2z" class="st21"/><path id="XMLID_283_" d="M237 611.3V671l-17.6-23.2z" class="st21"/><path id="XMLID_282_" d="M189.3 291.8l-18 66.2 1.8-43.1z" class="st22"/><path id="XMLID_281_" d="M101.7 347.8l24.5 25.6-24.5-5.8z" class="st22"/><path id="XMLID_280_" d="M52 362.3l-10.4 31.5 23.7-25.6z" class="st22"/><path id="XMLID_279_" d="M104 477.8l-22.8 35.4-9.5-28.7z" class="st22"/><path id="XMLID_278_" d="M218.1 553.8l13.9 9.3-1.4 12.8-39 8.7z" class="st22"/><path id="XMLID_277_" d="M237 611.3l-26.3 54.5-12.6-30.9z" class="st22"/><path id="XMLID_276_" d="M192.2 596.7l-6.7 45.8-21.9-31.2z" class="st22"/><path id="XMLID_275_" d="M109.4 526.7l22.1 35-53-.8z" class="st22"/><path id="XMLID_274_" d="M52.4 542.5l-9.2 41.7 35.3-23.3z" class="st22"/><path id="XMLID_273_" d="M175.7 540.8l-24.4 40.4-19.8-19.5z" class="st23"/><path id="XMLID_272_" d="M175.7 540.8l28.6 1-12.7 42.8z" class="st23"/><path id="XMLID_271_" d="M192.2 596.7l44.8-15.9v30.5z" class="st24"/><path id="XMLID_270_" d="M192.2 596.7l-.6-12.1-52.8 39.3z" class="st24"/><path id="XMLID_269_" d="M131.5 561.7l-60.8 40.7 7.8-41.5z" class="st24"/><path id="XMLID_268_" d="M52.4 542.5l-5.6 25.7L9 584.6z" class="st24"/><path id="XMLID_267_" d="M192.2 596.7l-.6-12.1 45.4-3.8z" class="st25"/><path id="XMLID_266_" d="M167 602.9l-15.7-21.7-12.5 42.7z" class="st25"/><path id="XMLID_265_" d="M131.5 561.7l4.1 34.4-64.9 6.3z" class="st25"/><path id="XMLID_264_" d="M68.4 261.7l-24.5.4 11.3 17.1z" class="st25"/><path id="XMLID_263_" d="M55.3 241.2L4.7 206.5l30.6-32z" class="st25"/><path id="XMLID_262_" d="M35.3 174.5l15.1-52.1 21 66.5z" class="st25"/><path id="XMLID_261_" d="M50.4 122.4l51.3 25.8-25.2-20z" class="st25"/><path id="XMLID_260_" d="M42.2 296.3l-46 39.5L8.8 340z" class="st18"/><path id="XMLID_259_" d="M151.3 581.2l-19.8-19.5 7.3 62.2z" class="st26"/><path id="XMLID_258_" d="M124.6 310.8l13.7 25 22.8 2.3z" class="st27"/><path id="XMLID_257_" d="M161.1 299.9v38.2l-13.5-24.9z" class="st27"/><path id="XMLID_256_" d="M189.3 291.8l-11.4-8.5-16.8 16.6z" class="st27"/><path id="XMLID_255_" d="M55.3 241.2l13.1 20.5-24.5.4z" class="st27"/><path id="XMLID_254_" d="M71.4 188.9l26.8 58.3-26.8-14.6z" class="st27"/><path id="XMLID_253_" d="M136.1 357l17.2 34-27.1-17.6z" class="st21"/><path id="XMLID_252_" d="M153.3 391l18.5-7.1-22.2-.3z" class="st24"/><path id="XMLID_251_" d="M171.8 383.9l6.1 14.1-9.6 7.5z" class="st24"/><path id="XMLID_250_" d="M161.1 338.1l-22.8-2.3 11.5 9.3z" class="st16"/><path id="XMLID_243_" d="M223 310.5l-17.2-8.7 14.5 46z" class="st11"/><path id="XMLID_242_" d="M204 515.2l33-14.1-12 26.6z" class="st22"/><path id="XMLID_241_" d="M225 527.7l12-26.6v26.6z" class="st24"/><path id="XMLID_240_" d="M237 501.1l-24-25.6-9 39.7z" class="st13"/><path id="XMLID_239_" d="M213 475.5l24-39.3v64.9z" class="st28"/><path id="XMLID_238_" d="M213 475.5v-75.1l24 35.8z" class="st29"/><path id="XMLID_237_" d="M213 400.4l-14.9 53.5-8.8-24.7z" class="st29"/><path id="XMLID_236_" d="M213 400.4l24-16.9v33.6z" class="st9"/><path id="XMLID_235_" d="M213 400.4l7.3-52.6 16.7 35.7z" class="st30"/><path id="XMLID_234_" d="M213 400.4l24 35.8v-19.1z" class="st28"/><path id="XMLID_233_" d="M153.2 197.3L136.9 174l-12.3 33.8z" class="st13"/><path id="XMLID_232_" d="M153.2 197.3l30.5-24.4-46.8 1.1z" class="st31"/><path id="XMLID_231_" d="M183.7 172.9l53.3 13.6v-13.6z" class="st31"/><path id="XMLID_230_" d="M153.2 197.3l54.1-18.4-23.6-6z" class="st13"/><path id="XMLID_229_" d="M183.7 172.9l25.9-14.8-72.7 15.9z" class="st32"/><path id="XMLID_228_" d="M209.6 158.1l27.4-6-12 14.3z" class="st32"/><path id="XMLID_227_" d="M237 152.1l-59.1-7.3 59.1-9.9z" class="st8"/><path id="XMLID_226_" d="M237 152.1L136.9 174l41-29.2z" class="st7"/><path id="XMLID_225_" d="M152.7 224.8l.5-27.5 41.3 5.9z" class="st20"/><path id="XMLID_224_" d="M113.1 254.5l-33.4 31.7-11.3-24.5z" class="st32"/><path id="XMLID_223_" d="M113.1 254.5l11.5-46.7-26.4 39.4z" class="st32"/><path id="XMLID_222_" d="M153.2 197.3l-40.1 57.2 11.5-46.7z" class="st17"/><path id="XMLID_221_" d="M152.7 224.8L142 213.3l11.2-16z" class="st18"/><path id="XMLID_220_" d="M152.7 224.8h-18.8l-20.8 29.7z" class="st18"/><path id="XMLID_219_" d="M152.7 224.8L142 213.3l-8.1 11.5z" class="st6"/><path id="XMLID_218_" d="M124.6 207.8l-22.9-59.6 35.2 25.8z" class="st32"/><path id="XMLID_217_" d="M35.3 174.5l-20.6-33.7 35.7-18.4z" class="st29"/><path id="XMLID_216_" d="M35.3 174.5l-20.6-33.7-10 65.7z" class="st9"/><path id="XMLID_215_" d="M101.7 148.2l-30.3 40.7-21-66.5z" class="st16"/><path id="XMLID_214_" d="M101.7 148.2l22.9 59.6-53.2-18.9z" class="st17"/><path id="XMLID_213_" d="M124.6 207.8l-26.4 39.4-26.8-58.3z" class="st21"/><path id="XMLID_249_" d="M165.6 353.1l-15.8-8-25.2 2.8 11.5 9.1s-8.2 34.5 35.7 27l6.2 14.1 14.7-11.5-22.1-29.6-5-3.9z" class="st2"/><path id="XMLID_248_" d="M157.5 361.1c7 0 12.9 4 15.2 9.7.6-1.6 1-3.2 1-5 0-8.1-7.2-14.7-16.2-14.7-8.9 0-16.2 6.6-16.2 14.7 0 1.8.4 3.4 1 5 2.3-5.7 8.2-9.7 15.2-9.7z" class="st6"/><path id="XMLID_247_" d="M157.5 380.4c7 0 12.9-4 15.2-9.7-2.3-5.6-8.2-9.7-15.2-9.7s-12.9 4-15.2 9.7c2.3 5.7 8.2 9.7 15.2 9.7z" class="st33"/><ellipse id="XMLID_245_" cx="161.1" cy="362.3" class="st34" rx="4.6" ry="5.3"/></g><g id="right-side"><path id="XMLID_209_" d="M311.6 367.6c2.9.2 5.7-1.7 5.9-4.7.1-1.9-.7-3.6-2.1-4.7-.2-.8-.8-1.4-1.8-1.1-.1 0-.1.1-.2.1s-.2-.1-.3-.1c-1-.2-1.7.5-1.9 1.3-1.3 1.1-2.3 2.5-2.7 4.1-.5 2.4.4 4.9 3.1 5.1zm.1-5.1c.4-.8 1-1.5 1.7-2.1.7.5 1.3 1.3 1.1 2.3-.3 1.2-1.7 2.3-3 1.8-.5-.1 0-1.5.2-2z" class="st0"/><path id="XMLID_208_" d="M237 527.7h12l21-12.5 7.6 6.3-25.2 21.7-.8 12-14.6 3.5z" class="st1"/><path id="XMLID_207_" d="M277.6 521.5l12-16.2v12l-20 24.5h-7l-6.7 12-13.9 9.3 1.3 12.8 39.1 8.7-45.4-3.8v-22.1l15.5-3.9-.1-11.6z" class="st2"/><path id="XMLID_206_" d="M237 172.9l27.4-14.8 25.9 14.8z" class="st2"/><path id="XMLID_205_" d="M253.6 244.2l30.3 20.6 43.1-12z" class="st2"/><path id="XMLID_204_" d="M237 186.5l83.8 10.8-54.1-18.4z" class="st2"/><path id="XMLID_203_" d="M253.6 244.2l-16.6-25v33.9z" class="st2"/><path id="XMLID_202_" d="M327 252.8l22.4 58 26.1-12.4z" class="st2"/><path id="XMLID_201_" d="M375.8 247.2l26.8-14.6 3 29.1z" class="st2"/><path id="XMLID_200_" d="M402.6 232.6v-43.7l36-14.4z" class="st2"/><path id="XMLID_199_" d="M349.4 310.8v37h22.9z" class="st2"/><path id="XMLID_198_" d="M347.8 373.4l24.5 16.1v-21.9z" class="st2"/><path id="XMLID_197_" d="M386.3 347.8l7.7-30.3 14.7 50.7z" class="st2"/><path id="XMLID_196_" d="M421.5 325.2v35.7l21.6 4.1z" class="st2"/><path id="XMLID_195_" d="M338.3 410.5l21.2-8.8-6 24.5z" class="st2"/><path id="XMLID_194_" d="M405.3 413.9l-1.3 48.5-34 15.4z" class="st2"/><path id="XMLID_193_" d="M433.4 449.1l-31.1 35.4 19.2 58z" class="st2"/><path id="XMLID_192_" d="M282.4 584.6l40.2-3.4-15.6 21.7z" class="st2"/><path id="XMLID_191_" d="M237 172.9l11.9-6.5-11.9-14.3z" class="st3"/><path id="XMLID_190_" d="M237 186.5v32.7l18.7-30.3z" class="st3"/><path id="XMLID_189_" d="M327 252.8l-5.7-28 39.6 29.7z" class="st3"/><path id="XMLID_188_" d="M402.6 232.6l3 29.1 13-20.5z" class="st3"/><path id="XMLID_187_" d="M421.5 325.2l-12.3-3.4 12.3 39.1z" class="st3"/><path id="XMLID_186_" d="M408.7 368.2l-13.4 21.5-9-41.9z" class="st3"/><path id="XMLID_185_" d="M347.8 373.4l11.7 28.3 12.8-12.2z" class="st3"/><path id="XMLID_184_" d="M421.5 360.9l10.8 32.9 10.8-28.8z" class="st3"/><path id="XMLID_183_" d="M395.3 389.7l10 24.2-22 39.9z" class="st3"/><path id="XMLID_182_" d="M354 508.8l10.6 17.9-22.2 35z" class="st3"/><path id="XMLID_181_" d="M255 206.5l24.5-3.3 47.5 49.6z" class="st3"/><path id="XMLID_180_" d="M421.5 325.2l-27.2-39-.3 31.3z" class="st4"/><path id="XMLID_179_" d="M432.3 393.8l1.1 55.3 14.2-8.3z" class="st4"/><path id="XMLID_178_" d="M383.3 453.8l-47.7 1.4 51.3-21z" class="st4"/><path id="XMLID_177_" d="M402.3 484.5l-9.5 28.7 28.7 29.3z" class="st4"/><path id="XMLID_176_" d="M354 508.8l38.8 4.4-28.2 13.5z" class="st4"/><path id="XMLID_175_" d="M349.4 310.8l-36.5 27.3 13.5-24.9z" class="st4"/><path id="XMLID_174_" d="M438.6 174.5l-20 66.7-16-8.6z" class="st4"/><path id="XMLID_173_" d="M418.6 241.2l11.5 20.9 7.6-26.4z" class="st5"/><path id="XMLID_172_" d="M443.1 365l-10.8 28.8 15.3 47z" class="st6"/><path id="XMLID_171_" d="M408.7 368.2l-3.4 45.7-10-24.2z" class="st6"/><path id="XMLID_170_" d="M392.8 513.2L370 477.8l-16 31z" class="st6"/><path id="XMLID_169_" d="M370 477.8l-63-41.6 34 48.3z" class="st6"/><path id="XMLID_168_" d="M433.4 449.1l14.2 48.4-26.1 45z" class="st4"/><path id="XMLID_167_" d="M360.9 254.5l14.6 43.9 18.8-12.2z" class="st6"/><path id="XMLID_166_" d="M327 252.8l48.5 45.6-14.6-43.9z" class="st7"/><path id="XMLID_165_" d="M237 219.2l18.7-30.3-2.1 55.3z" class="st7"/><path id="XMLID_164_" d="M331.2 517.8l-28.7 1.4-4.2 21.6z" class="st7"/><path id="XMLID_163_" d="M281.4 386.6l3.2 42.6 21-23.7z" class="st8"/><path id="XMLID_162_" d="M261 400.4l21.8-48-29.2-4.6z" class="st8"/><path id="XMLID_161_" d="M261 400.4v75.1l14.9-21.6z" class="st8"/><path id="XMLID_160_" d="M275.9 453.9l18 23.3-32.9-1.7z" class="st7"/><path id="XMLID_159_" d="M293.9 477.2l-4.3 28.1-28.6-29.8z" class="st8"/><path id="XMLID_158_" d="M305.6 405.5l1.4 30.7-22.4-7z" class="st9"/><path id="XMLID_157_" d="M237 317.5l16.6 30.3-16.6 35.7z" class="st10"/><path id="XMLID_156_" d="M307 436.2l-13.1 41 47.1 7.3z" class="st10"/><path id="XMLID_155_" d="M284.6 429.2l-8.7 24.7 31.1-17.7z" class="st10"/><path id="XMLID_154_" d="M281.4 386.6L261 400.4l23.6 28.8z" class="st10"/><path id="XMLID_153_" d="M261 400.4l21.8-48-1.4 34.2z" class="st11"/><path id="XMLID_152_" d="M307 436.2l-31.1 17.7 18 23.3z" class="st11"/><path id="XMLID_151_" d="M338.3 410.5L320.6 391l-15 14.5z" class="st11"/><path id="XMLID_150_" d="M293.9 477.2l8.6 42-12.9-13.9z" class="st11"/><path id="XMLID_149_" d="M320.6 391l27.2-17.6-9.5 37.1z" class="st12"/><path id="XMLID_148_" d="M293.9 477.2l37.3 40.6 9.8-33.3z" class="st12"/><path id="XMLID_147_" d="M253.6 347.8l14.6-46 14.6 50.6z" class="st12"/><path id="XMLID_146_" d="M253.6 347.8l-2.6-37.3-14 7z" class="st12"/><path id="XMLID_145_" d="M305.6 405.5l1.4 30.7 31.3-25.7z" class="st12"/><path id="XMLID_144_" d="M293.9 477.2l8.6 42 28.7-1.4z" class="st13"/><path id="XMLID_143_" d="M307 436.2l31.3-25.7-2.7 44.6z" class="st13"/><path id="XMLID_142_" d="M347.8 373.4l1.6-25.6h22.9z" class="st13"/><path id="XMLID_141_" d="M268.2 301.8L237 317.5v-64.4z" class="st13"/><path id="XMLID_140_" d="M237 253.1l16.6-8.9 14.6 57.6z" class="st14"/><path id="XMLID_139_" d="M261 475.5l9 39.7 7.6 6.3 12-16.2z" class="st14"/><path id="XMLID_138_" d="M347.8 373.4l-9.5 37.1 21.2-8.8z" class="st14"/><path id="XMLID_137_" d="M279.5 203.2l41.8 21.6 5.7 28z" class="st14"/><path id="XMLID_136_" d="M375.5 298.4l18.5 19.1.3-31.3z" class="st14"/><path id="XMLID_135_" d="M253.6 244.2l14.6 57.6 15.7-37z" class="st15"/><path id="XMLID_134_" d="M375.5 298.4l-26.1 12.4 44.6 6.7z" class="st15"/><path id="XMLID_133_" d="M372.3 347.8v41.7l14-41.7z" class="st15"/><path id="XMLID_132_" d="M394 317.5l28 44.8-12.8-40.5z" class="st15"/><path id="XMLID_131_" d="M327 252.8l-72-46.3-1.4 37.7z" class="st15"/><path id="XMLID_129_" d="M342.4 561.7l-44.1-20.9 32.9-23z" class="st15"/><path id="XMLID_128_" d="M394.3 286.2l37.5 10.1-10.3 28.9z" class="st15"/><path id="XMLID_127_" d="M375.8 247.2l-14.9 7.3 44.7 7.2z" class="st15"/><path id="XMLID_126_" d="M372.3 347.8l21.7-30.3-7.7 30.3z" class="st16"/><path id="XMLID_125_" d="M284.6 291.8l-1.8 60.6 19.9 5.6z" class="st16"/><path id="XMLID_124_" d="M372.3 389.5l23 .2-9-41.9z" class="st16"/><path id="XMLID_123_" d="M338.3 410.5l-2.7 44.6 17.9-28.9z" class="st16"/><path id="XMLID_122_" d="M480 550.2l-58.5-7.7 26.1-45z" class="st16"/><path id="XMLID_121_" d="M364.6 526.7l30.9 34.2-2.7-47.7z" class="st16"/><path id="XMLID_120_" d="M394.3 286.2l.3-.6 11-23.9 26.2 34.6z" class="st16"/><path id="XMLID_119_" d="M421.5 325.2l43.6 14.8-22 25z" class="st16"/><path id="XMLID_118_" d="M431.8 296.3l-10.3 28.9 43.6 14.8z" class="st17"/><path id="XMLID_117_" d="M372.3 347.8l21.7-30.3-44.6-6.7z" class="st17"/><path id="XMLID_116_" d="M337.9 357l9.9 16.4 1.6-25.6z" class="st17"/><path id="XMLID_115_" d="M302.7 358l-19.9-5.6-1.4 34.2z" class="st17"/><path id="XMLID_114_" d="M302.7 358l10.2-19.9 11.2 7z" class="st17"/><path id="XMLID_113_" d="M284.6 291.8l-.7-27-15.7 37z" class="st17"/><path id="XMLID_112_" d="M327 252.8l-.6 60.4 23-2.4z" class="st17"/><path id="XMLID_111_" d="M255 206.5l65.8-9.2-65.1-8.4z" class="st17"/><path id="XMLID_110_" d="M341 484.5l-9.8 33.3 22.8-9z" class="st17"/><path id="XMLID_109_" d="M447.6 440.8v56.7l60.4-9.8z" class="st17"/><path id="XMLID_108_" d="M327 252.8l-30.9 30.5 30.3 29.9z" class="st18"/><path id="XMLID_107_" d="M283.9 264.8l12.2 18.5-11.5 8.5z" class="st18"/><path id="XMLID_106_" d="M284.6 291.8l-16.4 10 14.6 50.6z" class="st18"/><path id="XMLID_105_" d="M312.9 299.9v38.2l-12-23.2z" class="st18"/><path id="XMLID_104_" d="M465.1 340l-22 25 37.5 17.5z" class="st18"/><path id="XMLID_103_" d="M480.6 382.5l-33 58.3 51 3.2z" class="st18"/><path id="XMLID_102_" d="M372.3 389.5l14.6 44.7 8.4-44.5z" class="st18"/><path id="XMLID_101_" d="M386.9 434.2l-27.4-32.5-6 24.5z" class="st18"/><path id="XMLID_100_" d="M405.3 413.9l27-20.1 1.1 55.3z" class="st18"/><path id="XMLID_99_" d="M341 484.5l29-6.7-16 31z" class="st18"/><path id="XMLID_98_" d="M354 508.8l-22.8 9 11.2 43.9z" class="st19"/><path id="XMLID_97_" d="M443.1 365l4.5 75.8 33-58.3z" class="st20"/><path id="XMLID_96_" d="M432.3 393.8l-23.6-25.6-3.4 45.7z" class="st20"/><path id="XMLID_95_" d="M405.3 413.9l-1.3 48.5 29.4-13.3z" class="st20"/><path id="XMLID_94_" d="M359.5 401.7l12.8-12.2 14.6 44.7z" class="st20"/><path id="XMLID_93_" d="M353.5 426.2l-17.9 28.9 51.3-20.9z" class="st20"/><path id="XMLID_92_" d="M320.6 391l-18.4-7.1 3.4 21.6z" class="st20"/><path id="XMLID_91_" d="M349.4 310.8l-13.8 25 13.8 12z" class="st20"/><path id="XMLID_90_" d="M283.9 264.8l43.1-12-30.9 30.5z" class="st20"/><path id="XMLID_89_" d="M488.6 443.4l-8 23-33-25.6z" class="st20"/><path id="XMLID_88_" d="M289.6 505.3v12l-20 24.5 28.7-1 4.2-21.6z" class="st20"/><path id="XMLID_87_" d="M335.6 455.1l34.4 22.7 13.3-24z" class="st21"/><path id="XMLID_86_" d="M370 477.8l32.3 6.7 31.1-35.4z" class="st21"/><path id="XMLID_85_" d="M447.6 497.5l32.4 52.7 8.6-59.4z" class="st21"/><path id="XMLID_84_" d="M408.7 368.2l13.3-5.9-28-44.8z" class="st21"/><path id="XMLID_83_" d="M312.9 338.1l-12-23.2 1.8 43.1z" class="st21"/><path id="XMLID_82_" d="M324.1 345.1l11.5-9.3 13.8 12z" class="st21"/><path id="XMLID_81_" d="M300.9 314.9l-16.3-23.1 28.3 8.1z" class="st21"/><path id="XMLID_80_" d="M433.4 449.1l14.2-8.3v56.7z" class="st21"/><path id="XMLID_79_" d="M392.8 513.2l2.7 47.7 26-18.4z" class="st21"/><path id="XMLID_78_" d="M421.5 542.5l43.5 42.1v-36.4z" class="st21"/><path id="XMLID_77_" d="M298.3 540.8l24.3 40.4-40.2 3.4z" class="st21"/><path id="XMLID_76_" d="M269.6 541.8l12.8 42.8-26.5-30.8 6.7-12z" class="st21"/><path id="XMLID_75_" d="M281.8 596.7l6.7 45.8-51.5-31.2z" class="st21"/><path id="XMLID_74_" d="M237 611.3V671l17.6-23.2z" class="st21"/><path id="XMLID_73_" d="M284.6 291.8l18.1 66.2-1.8-43.1z" class="st22"/><path id="XMLID_72_" d="M372.3 347.8l-24.5 25.6 24.5-5.8z" class="st22"/><path id="XMLID_71_" d="M422 362.3l10.3 31.5-23.6-25.6z" class="st22"/><path id="XMLID_70_" d="M370 477.8l22.8 35.4 9.5-28.7z" class="st22"/><path id="XMLID_69_" d="M255.9 553.8l-13.9 9.3 1.3 12.8 39.1 8.7z" class="st22"/><path id="XMLID_68_" d="M237 611.3l26.3 54.5 12.6-30.9z" class="st22"/><path id="XMLID_67_" d="M281.8 596.7l6.7 45.8 21.9-31.2z" class="st22"/><path id="XMLID_66_" d="M364.6 526.7l-22.2 35 53.1-.8z" class="st22"/><path id="XMLID_65_" d="M421.5 542.5l9.3 41.7-35.3-23.3z" class="st22"/><path id="XMLID_64_" d="M298.3 540.8l24.3 40.4 19.8-19.5z" class="st23"/><path id="XMLID_63_" d="M298.3 540.8l-28.7 1 12.8 42.8z" class="st23"/><path id="XMLID_62_" d="M281.8 596.7L237 580.8v30.5z" class="st24"/><path id="XMLID_61_" d="M281.8 596.7l.6-12.1 52.7 39.3z" class="st24"/><path id="XMLID_60_" d="M342.4 561.7l60.8 40.7-7.7-41.5z" class="st24"/><path id="XMLID_59_" d="M421.5 542.5l5.7 25.7 37.8 16.4z" class="st24"/><path id="XMLID_58_" d="M281.8 596.7l.6-12.1-45.4-3.8z" class="st25"/><path id="XMLID_57_" d="M307 602.9l15.6-21.7 12.5 42.7z" class="st25"/><path id="XMLID_56_" d="M342.4 561.7l-4 34.4 64.8 6.3z" class="st25"/><path id="XMLID_55_" d="M405.6 261.7l24.5.4-11.3 17.1z" class="st25"/><path id="XMLID_54_" d="M418.6 241.2l50.7-34.7-30.7-32z" class="st25"/><path id="XMLID_53_" d="M438.6 174.5l-15-52.1-21 66.5z" class="st25"/><path id="XMLID_52_" d="M423.6 122.4l-51.3 25.8 25.2-20z" class="st25"/><path id="XMLID_51_" d="M431.8 296.3l46 39.5-12.7 4.2z" class="st18"/><path id="XMLID_50_" d="M322.6 581.2l19.8-19.5-7.3 62.2z" class="st26"/><path id="XMLID_49_" d="M349.4 310.8l-13.8 25-22.7 2.3z" class="st27"/><path id="XMLID_48_" d="M312.9 299.9v38.2l13.5-24.9z" class="st27"/><path id="XMLID_47_" d="M284.6 291.8l11.5-8.5 16.8 16.6z" class="st27"/><path id="XMLID_46_" d="M418.6 241.2l-13 20.5 24.5.4z" class="st27"/><path id="XMLID_45_" d="M402.6 188.9l-26.8 58.3 26.8-14.6z" class="st27"/><path id="XMLID_44_" d="M337.9 357l-17.3 34 27.2-17.6z" class="st21"/><path id="XMLID_43_" d="M320.6 391l-18.4-7.1 22.2-.3z" class="st24"/><path id="XMLID_42_" d="M302.2 383.9l-6.1 14.1 9.5 7.5z" class="st24"/><path id="XMLID_41_" d="M312.9 338.1l22.7-2.3-11.5 9.3z" class="st16"/><path id="XMLID_34_" d="M251 310.5l17.2-8.7-14.6 46z" class="st11"/><path id="XMLID_33_" d="M270 515.2l-33-14.1 12 26.6z" class="st22"/><path id="XMLID_32_" d="M249 527.7l-12-26.6v26.6z" class="st24"/><path id="XMLID_31_" d="M237 501.1l24-25.6 9 39.7z" class="st13"/><path id="XMLID_30_" d="M261 475.5l-24-39.3v64.9z" class="st28"/><path id="XMLID_29_" d="M261 475.5v-75.1l-24 35.8z" class="st29"/><path id="XMLID_28_" d="M261 400.4l14.9 53.5 8.7-24.7z" class="st29"/><path id="XMLID_27_" d="M261 400.4l-24-16.9v33.6z" class="st9"/><path id="XMLID_26_" d="M261 400.4l-7.4-52.6-16.6 35.7z" class="st30"/><path id="XMLID_25_" d="M261 400.4l-24 35.8v-19.1z" class="st28"/><path id="XMLID_24_" d="M320.8 197.3l16.3-23.3 12.3 33.8z" class="st13"/><path id="XMLID_23_" d="M320.8 197.3l-30.5-24.4 46.8 1.1z" class="st31"/><path id="XMLID_22_" d="M290.3 172.9L237 186.5v-13.6z" class="st31"/><path id="XMLID_21_" d="M320.8 197.3l-54.1-18.4 23.6-6z" class="st13"/><path id="XMLID_20_" d="M290.3 172.9l-25.9-14.8 72.7 15.9z" class="st32"/><path id="XMLID_19_" d="M264.4 158.1l-27.4-6 11.9 14.3z" class="st32"/><path id="XMLID_18_" d="M237 152.1l59.1-7.3-59.1-9.9z" class="st8"/><path id="XMLID_17_" d="M237 152.1L337.1 174l-41-29.2z" class="st7"/><path id="XMLID_16_" d="M321.3 224.8l-.5-27.5-41.3 5.9z" class="st20"/><path id="XMLID_15_" d="M360.9 254.5l33.4 31.7 11.3-24.5z" class="st32"/><path id="XMLID_14_" d="M360.9 254.5l-11.5-46.7 26.4 39.4z" class="st32"/><path id="XMLID_13_" d="M320.8 197.3l40.1 57.2-11.5-46.7z" class="st17"/><path id="XMLID_12_" d="M321.3 224.8l10.6-11.5-11.1-16z" class="st18"/><path id="XMLID_11_" d="M321.3 224.8H340l20.9 29.7z" class="st18"/><path id="XMLID_10_" d="M321.3 224.8l10.6-11.5 8.1 11.5z" class="st6"/><path id="XMLID_9_" d="M349.4 207.8l22.9-59.6-35.2 25.8z" class="st32"/><path id="XMLID_8_" d="M438.6 174.5l20.7-33.7-35.7-18.4z" class="st29"/><path id="XMLID_7_" d="M438.6 174.5l20.7-33.7 10 65.7z" class="st9"/><path id="XMLID_6_" d="M372.3 148.2l30.3 40.7 21-66.5z" class="st16"/><path id="XMLID_5_" d="M372.3 148.2l-22.9 59.6 53.2-18.9z" class="st17"/><path id="XMLID_4_" d="M349.4 207.8l26.4 39.4 26.8-58.3z" class="st21"/><path id="XMLID_40_" d="M308.4 353.1l15.8-8 25.3 2.8L338 357s8.2 34.5-35.7 27l-6.2 14.1-14.7-11.5 22.1-29.6 4.9-3.9z" class="st2"/><path id="XMLID_39_" d="M316.5 361.1c-7 0-12.9 4-15.2 9.7-.6-1.6-1-3.2-1-5 0-8.1 7.2-14.7 16.2-14.7 8.9 0 16.2 6.6 16.2 14.7 0 1.8-.4 3.4-1 5-2.3-5.7-8.2-9.7-15.2-9.7z" class="st6"/><path id="XMLID_38_" d="M316.5 380.4c-7 0-12.9-4-15.2-9.7 2.3-5.6 8.2-9.7 15.2-9.7s12.9 4 15.2 9.7c-2.3 5.7-8.2 9.7-15.2 9.7z" class="st33"/><ellipse id="XMLID_36_" cx="312.9" cy="362.3" class="st34" rx="4.6" ry="5.3"/></g></svg>