<?xml version="1.0" encoding="utf-8"?>
<!-- Generator: Adobe Illustrator 23.0.2, SVG Export Plug-In . SVG Version: 6.00 Build 0)  -->
<svg version="1.1" id="Layer_1" xmlns="http://www.w3.org/2000/svg" xmlns:xlink="http://www.w3.org/1999/xlink" x="0px" y="0px"
	 viewBox="0 0 400 400" style="enable-background:new 0 0 400 400;" xml:space="preserve">
<style type="text/css">
	.st0{fill:#F4F4F4;}
	.st1{fill:#555151;}
	.st2{fill:#FFBE07;}
</style>
<path class="st0" d="M198,328.3v-3.2h-63.6c-17.9,0-32.5-14.5-32.5-32.5v-20.2c0-17.9,24.6-32.5,24.6-32.5v-68.5
	c0-58.5,39.9-107.6,93.6-121l0,0V29.6c0-3.3,0.5-6.5,1.6-9.6c-8.2-9.2-21.1-12.3-32.6-8c-11.5,4.4-19,15.4-19,27.6v20.8l0,0
	c-53.7,13.4-93.6,62.5-93.6,121v68.5c0,0-24.6,14.5-24.6,32.5v20.2c0,17.9,14.5,32.5,32.5,32.5H148v3.2c0,20.2,11.8,38.6,30.2,47
	s40,5.3,55.3-7.9C212.4,370.4,198,350.6,198,328.3z"/>
<path class="st1" d="M239.8,52.8V39.6c0-21.8-18.2-39.6-40-39.6s-40,17.7-40,39.6v13.3c-54,17.1-93,68.2-93,128.5v68.5
	c0,5.5,4.5,10,10,10s10-4.5,10-10v-68.5c0-63.2,50.6-114.6,113-114.6s113,51.4,113,114.6v68.5c0,5.5,4.5,10,10,10s10-4.5,10-10
	v-68.5C332.8,121.1,293.8,69.9,239.8,52.8z M179.8,48.2v-8.7c0-10.8,9.2-19.6,20-19.6s20,8.8,20,19.6v8.7
	C206.5,46.3,193,46.3,179.8,48.2z"/>
<path class="st1" d="M199.8,400c-34.1,0-61.7-27.6-61.7-61.7v-3.2c0-5.5,4.5-10,10-10s10,4.5,10,10v3.2c0,23,18.7,41.7,41.7,41.7
	s41.7-18.7,41.7-41.7V335c0-5.5,4.5-10,10-10s10,4.5,10,10v3.2C261.4,372.4,233.8,400,199.8,400z"/>
<path class="st2" d="M315,345.1H84.5C61,345,42,326,42,302.6v-20.2c0-23.4,19-42.4,42.5-42.5H315c23.4,0,42.5,19,42.5,42.5v20.2
	C357.5,326,338.5,345,315,345.1z M84.5,259.9C72.1,259.9,62,270,62,282.4v20.2c0,12.4,10.1,22.5,22.5,22.5H315
	c12.4,0,22.5-10.1,22.5-22.5v-20.2c0-12.4-10.1-22.5-22.5-22.5H84.5z"/>
</svg>
