<?xml version="1.0" encoding="utf-8"?>
<!-- Generator: Adobe Illustrator 23.0.2, SVG Export Plug-In . SVG Version: 6.00 Build 0)  -->
<svg version="1.1" id="Layer_1" xmlns="http://www.w3.org/2000/svg" xmlns:xlink="http://www.w3.org/1999/xlink" x="0px" y="0px"
	 viewBox="0 0 399 399" style="enable-background:new 0 0 399 399;" xml:space="preserve">
<style type="text/css">
	.st0{fill:#F4F4F4;}
	.st1{fill:#555151;}
	.st2{fill:#FFBE07;}
</style>
<path class="st0" d="M169.1,377.8l-108.9-109c-7.2-7.2-11.3-17-11.3-27.2s4.1-20,11.3-27.2L264.3,10.2L224.6,10L20.3,214.4
	C13,221.6,9,231.4,9,241.6s4.1,20,11.3,27.2l108.9,108.9c12.6,12.5,32,14.9,47.2,5.7C173.7,381.8,171.3,379.9,169.1,377.8z"/>
<path class="st1" d="M387.2,0.8L224.6,0h-0.1c-2.6,0-5.2,1.1-7.1,2.9L13.2,207.3c-18.9,19-18.9,49.6,0,68.6l108.9,108.9
	c19,18.9,49.7,18.9,68.6,0l204.4-204.4c1.9-1.9,2.9-4.4,2.9-7.1l-0.8-162.6C397.1,5.3,392.7,0.9,387.2,0.8z M176.6,370.7
	c-5.3,5.4-12.6,8.4-20.1,8.4s-14.8-3-20.1-8.4l-109.1-109c-5.4-5.3-8.4-12.6-8.4-20.1s3-14.8,8.4-20.1L228.7,20l148.5,0.8l0.8,148.5
	L176.6,370.7z"/>
<path class="st2" d="M280,69.5c-23.1,0.1-42.9,16.4-47.3,39c-4.5,22.6,7.7,45.3,29,54.1c21.3,8.8,45.9,1.3,58.7-17.9s10.3-44.7-6-61
	C305.2,74.6,292.9,69.5,280,69.5z M300.1,138.2c-9.6,9.6-24.6,11-35.9,3.4c-11.2-7.6-15.6-22-10.4-34.5s18.5-19.6,31.8-17
	c13.3,2.7,22.9,14.3,22.9,27.9C308.5,125.6,305.5,132.8,300.1,138.2z"/>
</svg>
