<?xml version="1.0" encoding="utf-8"?>
<!-- Generator: Adobe Illustrator 23.0.2, SVG Export Plug-In . SVG Version: 6.00 Build 0)  -->
<svg version="1.1" id="Layer_1" xmlns="http://www.w3.org/2000/svg" xmlns:xlink="http://www.w3.org/1999/xlink" x="0px" y="0px"
	 viewBox="0 0 483 483" style="enable-background:new 0 0 483 483;" xml:space="preserve">
<style type="text/css">
	.st0{fill:#F4F4F4;}
	.st1{fill:#FFBE07;}
	.st2{fill:#555151;}
</style>
<path class="st0" d="M238.1,453.2c-25.5,0-41.2-28-27.8-49.8l70.3-114c5.1-8.2,7.8-17.7,7.8-27.4v-19.3c0-3.8-3.1-6.9-6.9-6.9
	s-6.9-3.1-6.9-6.9v-11.6h-33.4c-3.6,0-6.5,2.9-6.5,6.5V249c0,3.8,3.1,6.9,6.9,6.9c3.8,0,6.9,3.1,6.9,6.9V282
	c0,9.7-2.7,19.2-7.8,27.4l-70.3,114c-13.4,21.7,2.2,49.8,27.8,49.8h174.1c13.1,0.1,25-7.8,30.1-20L238.1,453.2z"/>
<path class="st1" d="M328.4,265.8H242c-5.5,0-10-4.5-10-10c0-5.5,4.5-10,10-10h86.5c5.5,0,10,4.5,10,10
	C338.4,261.3,334,265.8,328.4,265.8z"/>
<path class="st0" d="M117.3,204.4c-12.6-12.6-12.6-33,0-45.6L231.6,44.5c2.1-2.1,3.8-4.7,4.9-7.5l2.6-6.7L218.7,10l-10.4,27
	c-1.1,2.8-2.7,5.4-4.9,7.5L89.1,158.8c-12.6,12.6-12.6,33,0,45.6c9.7,9.7,24.5,12.2,36.9,6.2C122.7,209,119.8,206.9,117.3,204.4z"/>
<path class="st1" d="M288.1,196.4c-16.6,0-31.5-10-37.9-25.3c-6.3-15.3-2.8-33,8.9-44.7l21.9-21.9c3.9-3.9,10.2-3.9,14.1,0
	l21.9,21.9c11.7,11.7,15.2,29.4,8.9,44.7C319.6,186.4,304.7,196.4,288.1,196.4z M288.1,125.6l-14.9,14.9c-8.2,8.2-8.2,21.5,0,29.8
	c8.2,8.2,21.5,8.2,29.8,0c8.2-8.2,8.2-21.5,0-29.8L288.1,125.6z"/>
<g>
	<g>
		<g>
			<path class="st2" d="M338.3,304.2c-4.1-6.7-6.2-14.4-6.2-22.2v-16.5c8-1.4,13.9-8.4,14-16.5v-25.1c0-9.1-7.9-16.3-17-16.3h-87.8
				c-9.1,0-17,7.2-17,16.3V249c0.1,8.2,5.9,15.1,14,16.5V282c0,7.8-2.1,15.5-6.2,22.2l-70.3,114c-8.1,13.1-8.4,29.6-0.9,43.1
				s21.8,21.8,37.2,21.7h174.1c15.4,0,29.7-8.3,37.2-21.8s7.2-30-0.9-43.1L338.3,304.2z M392,451.5c-4,7.2-11.6,11.6-19.8,11.5
				H198.1c-8.2,0-15.8-4.4-19.8-11.5c-4-7.2-3.8-15.9,0.5-22.9l70.2-114c6-9.8,9.2-21.1,9.2-32.6v-19.3c-0.1-8.2-5.9-15.1-14-16.6
				v-18.6H326v18.6c-8,1.4-13.9,8.4-14,16.6V282c0,11.5,3.1,22.8,9.2,32.7l70.3,113.9C396,435.6,396.1,444.4,392,451.5z"/>
			<path class="st2" d="M260,94.5l27-10.4c3.1-1.2,5.5-3.9,6.2-7.2c0.7-3.3-0.3-6.7-2.7-9.1L225.7,2.9c-2.4-2.4-5.8-3.4-9.1-2.7
				s-6,3-7.2,6.2l-10.4,27c-0.6,1.5-1.5,2.9-2.6,4L82,151.8c-16.3,16.5-16.2,43.1,0.2,59.5s43,16.5,59.5,0.2L256,97.1
				C257.1,96,258.5,95.1,260,94.5z M241.9,83L127.6,197.3c-8.7,8.7-22.8,8.7-31.5,0s-8.7-22.8,0-31.5L210.4,51.6
				c3.1-3.1,5.6-6.9,7.1-11l4.9-12.7L265.6,71l-12.7,4.9C248.7,77.5,245,79.9,241.9,83z"/>
		</g>
	</g>
</g>
</svg>
