<?xml version="1.0" encoding="utf-8"?>
<!-- Generator: Adobe Illustrator 23.0.2, SVG Export Plug-In . SVG Version: 6.00 Build 0)  -->
<svg version="1.1" id="Layer_1" xmlns="http://www.w3.org/2000/svg" xmlns:xlink="http://www.w3.org/1999/xlink" x="0px" y="0px"
	 viewBox="0 0 400 400" style="enable-background:new 0 0 400 400;" xml:space="preserve">
<style type="text/css">
	.st0{fill:#F4F4F4;}
	.st1{fill:#555151;}
	.st2{fill:#FFBE07;}
</style>
<path class="st0" d="M168.7,135.7c-18.7-18.1-29.2-42.9-29.2-68.9V10h-40v56.8c0,26,10.5,50.8,29.2,68.9l71.4,69.1l20-19.4
	L168.7,135.7z"/>
<path class="st0" d="M171.1,269.5l49.2-46.2L200,204.8l-69,64.7c-19.3,18.1-30.3,43.4-30.3,69.9V390h40v-50.6
	C140.9,312.9,151.8,287.6,171.1,269.5z"/>
<path class="st1" d="M277.6,262l-62.9-57.4l63.9-61.7c20.6-20,32.3-47.4,32.4-76.1V10c0-5.5-4.5-10-10-10s-10,4.5-10,10v56.8
	c-0.1,23.3-9.6,45.5-26.4,61.7l-64.5,62.4l-64.7-62.4c-16.7-16.2-26.3-38.4-26.4-61.7V10c0-5.5-4.5-10-10-10S89,4.5,89,10v56.8
	c0.1,28.7,11.8,56.1,32.4,76.1l64,61.8l-61.1,57.5c-21.2,20.1-33.3,48-33.3,77.2V390c0,5.5,4.5,10,10,10s10-4.5,10-10v-50.6
	c0-23.7,9.8-46.4,27-62.6l62.2-58.4l63.9,58.4c17.8,16.3,27.9,39.3,28,63.4V390c0,5.5,4.5,10,10,10s10-4.5,10-10v-49.8
	C312,310.4,299.5,282.1,277.6,262z"/>
<g>
	<g>
		<path class="st2" d="M333.2,20H67c-5.5,0-10-4.5-10-10S61.5,0,67,0h266.2c5.5,0,10,4.5,10,10S338.7,20,333.2,20z"/>
		<path class="st2" d="M333.2,400H67c-5.5,0-10-4.5-10-10s4.5-10,10-10h266.2c5.5,0,10,4.5,10,10S338.7,400,333.2,400z"/>
	</g>
</g>
</svg>
