<?xml version="1.0" encoding="utf-8"?>
<!-- Generator: Adobe Illustrator 23.0.2, SVG Export Plug-In . SVG Version: 6.00 Build 0)  -->
<svg version="1.1" id="Layer_1" xmlns="http://www.w3.org/2000/svg" xmlns:xlink="http://www.w3.org/1999/xlink" x="0px" y="0px"
	 viewBox="0 0 374 374" style="enable-background:new 0 0 374 374;" xml:space="preserve">
<style type="text/css">
	.st0{fill:#FFBE07;}
	.st1{fill:#555151;}
	.st2{fill:#F4F4F4;}
</style>
<path class="st0" d="M164.8,230c-2,0-4-0.9-5.3-2.5l-37-43.3c-2.5-2.9-2.2-7.4,0.8-9.9c2.9-2.5,7.4-2.2,9.9,0.8l32.5,38.1l80.8-65.7
	c3-2.4,7.4-2,9.8,1s2,7.4-1,9.8l-86.1,70C168,229.5,166.4,230,164.8,230z"/>
<path class="st1" d="M162.5,365.2l19,8.3c1.8,0.8,3.8,0.8,5.6,0l21.4-9.2c75.1-31.5,123.9-105,123.9-186.4v-96c0-2.6-1.4-5-3.7-6.2
	L188.1,0.8c-2.1-1.1-4.6-1.1-6.7,0l-136.7,75c-2.2,1.2-3.6,3.6-3.6,6.1v97.8C41.2,260.2,88.8,332.9,162.5,365.2z M55.1,86
	l129.7-71.1L318.3,86v91.7c0,75.8-45.5,144.2-115.4,173.5h-0.1l-18.6,8l-16.2-7.1c-68.6-30-113-97.7-113-172.6L55.1,86z"/>
<path class="st2" d="M232.9,311.3L232.9,311.3l-18.7,8.1l-16.2-7.1c-68.6-30-113-97.7-113-172.6V69.6L55.1,86v93.7
	c0.1,74.9,44.4,142.6,113,172.6l16.2,7.1l18.6-8l0,0c38.7-16.3,70.9-45.1,91.5-81.7C276.9,287.4,256,301.6,232.9,311.3z"/>
</svg>
