<?xml version="1.0" encoding="utf-8"?>
<!-- Generator: Adobe Illustrator 23.0.2, SVG Export Plug-In . SVG Version: 6.00 Build 0)  -->
<svg version="1.1" id="Layer_1" xmlns="http://www.w3.org/2000/svg" xmlns:xlink="http://www.w3.org/1999/xlink" x="0px" y="0px"
	 viewBox="0 0 400 400" style="enable-background:new 0 0 400 400;" xml:space="preserve">
<style type="text/css">
	.st0{fill:#F4F4F4;}
	.st1{fill:#FFBE07;}
	.st2{fill:#555151;}
</style>
<path class="st0" d="M134.8,387.5V71.7c0-17.7,14.4-32.1,32.1-32.1h138.2c-1.1-16.9-15.1-30-32-30H126.9
	c-17.7,0-32.1,14.4-32.1,32.1v315.8c0,17.7,14.4,32.1,32.1,32.1h8C134.8,388.9,134.8,388.2,134.8,387.5z"/>
<path class="st1" d="M219.6,362.9h-39.1c-5.5,0-10-4.5-10-10s4.5-10,10-10h39.1c5.5,0,10,4.5,10,10S225.1,362.9,219.6,362.9z"/>
<path class="st2" d="M315,42.1C315,18.8,296.2,0,272.9,0H127.1C103.8,0,85,18.8,85,42.1v315.8c0,23.3,18.8,42.1,42.1,42.1h145.8
	c23.3,0,42.1-18.8,42.1-42.1V42.1z M105,72h190v234H105V72z M126.9,20h146.2c11.9-0.1,21.8,9.4,21.9,21.4v0.4V52H105V41.7
	c0-11.9,9.6-21.7,21.5-21.7H126.9z M273.1,380H126.9c-12.2,0-21.9-10.3-21.9-22.5V326h190v31.5C295,369.7,285.3,380,273.1,380z"/>
</svg>
