<?xml version="1.0" encoding="utf-8"?>
<!-- Generator: Adobe Illustrator 23.0.2, SVG Export Plug-In . SVG Version: 6.00 Build 0)  -->
<svg version="1.1" id="Layer_1" xmlns="http://www.w3.org/2000/svg" xmlns:xlink="http://www.w3.org/1999/xlink" x="0px" y="0px"
	 viewBox="0 0 480 480" style="enable-background:new 0 0 480 480;" xml:space="preserve">
<style type="text/css">
	.st0{fill:#F4F4F4;}
	.st1{fill:#555151;}
	.st2{fill:#FFBE07;}
</style>
<g>
	<path class="st0" d="M107.8,139.6c0-40.1,27.5-75,66.6-84.3c-6.6-1.5-13.3-2.3-20-2.3c-47.8,0-86.6,38.8-86.6,86.6
		s38.8,86.6,86.6,86.6c6.7,0,13.4-0.8,20-2.3C135.3,214.6,107.8,179.7,107.8,139.6z"/>
	<path class="st0" d="M174.4,278.4c-6.6-0.9-13.3-1.4-20-1.4C74.6,277.1,10,340.6,10,427.2h40C50,348,104.1,288.1,174.4,278.4z"/>
	<path class="st0" d="M318.5,151.1c0-31.8,22.1-59.4,53.1-66.4c-27.3-6.2-55.6,4.9-71.4,28s-15.8,53.6,0,76.7s44.1,34.3,71.4,28
		C340.5,210.5,318.5,182.9,318.5,151.1z"/>
	<path class="st0" d="M371.5,270.1c-5-0.6-10-1-15-1c-39.5-0.3-76.2,20.4-96.4,54.4l33.7,63.6h30l-33.7-63.6
		C307.7,294.2,337.6,274.5,371.5,270.1z"/>
</g>
<path class="st1" d="M154.4,43c-53.3,0-96.6,43.3-96.6,96.6s43.3,96.6,96.6,96.6c53.4,0,96.6-43.3,96.6-96.6
	C250.9,86.3,207.7,43.1,154.4,43z M154.4,216.2c-42.3,0-76.6-34.3-76.6-76.6S112.1,63,154.4,63S231,97.3,231,139.6
	S196.7,216.2,154.4,216.2z"/>
<path class="st1" d="M437.6,109.4c-4.6,0-9.2,0.9-13.5,2.7c-7.7-13.3-19.1-24-32.8-30.9c-0.5-0.3-1-0.5-1.5-0.7
	c-10.4-4.9-21.7-7.4-33.2-7.4c-43,0.1-77.9,34.8-78.1,77.8v0.2c0,37.8,27,70.1,64.2,76.8c37.2,6.7,73.8-14.1,87-49.4
	c2.6,0.6,5.3,0.9,8,0.9c19.3,0,35-15.7,34.9-35C472.6,125,456.9,109.4,437.6,109.4z M356.5,93.1c5.6,0,11.2,0.8,16.6,2.4
	c-4.3,9.9-9.3,18.3-15.2,25.1c-0.3,0.3-0.5,0.6-0.8,0.9c-9,10.3-19.9,17.1-32.4,20.2c-8.4,2.1-17.1,2.5-25.7,1.3
	C303.1,114.4,327.6,93.1,356.5,93.1z M356.5,209.2c-27.4,0-51-19.1-56.8-45.9c2.9,0.3,5.8,0.4,8.7,0.4c6.7,0,13.4-0.8,20-2.3
	c13-3.1,25-9.3,35-18.2c3,3.9,6.3,7.5,10,10.8c11.4,10.4,24.1,16.1,37.5,17C402.7,193.9,380.9,209.2,356.5,209.2z M414.6,151.2
	c-18.8-0.2-31.6-14.8-37.3-23c5.4-7.4,10-15.4,13.7-23.8c8.5,6.3,15.1,14.8,19.2,24.5c0.2,1,0.6,1.9,1.1,2.8
	C413.5,138,414.6,144.6,414.6,151.2z M437.6,159.4c-1.1,0-2.3-0.1-3.4-0.4c0.3-2.6,0.4-5.3,0.4-7.9c0-7-1-13.9-2.8-20.6
	c1.8-0.8,3.8-1.1,5.8-1.1c8.3,0,15,6.7,15,15S445.9,159.4,437.6,159.4z"/>
<path class="st2" d="M356.5,259.1c-39.2,0-74.9,18-97.8,48.7c-28.3-26.4-65.6-41-104.3-40.8c-41.7,0-80.5,16.2-109.3,45.6
	C16,342.4,0,383.1,0,427.2c0,5.5,4.5,10,10,10h288.8c5.5,0,10-4.5,10-10c0-10.1-0.9-20.2-2.6-30.1H470c5.5,0,10-4.5,10-10
	c0-35.2-12.8-67.7-36.1-91.5C420.9,272.1,389.4,258.9,356.5,259.1z M20.3,417.2c2.2-35,15.9-66.8,39.1-90.6
	c25.1-25.3,59.3-39.6,95-39.6s69.9,14.3,95,39.6c23.2,23.8,36.9,55.6,39.1,90.6H20.3z M301.5,377.1c-6-19.9-15.8-38.3-28.9-54.4
	c17.5-24.9,45.1-40.7,75.4-43.2s60.2,8.5,81.6,30.1c17.4,17.8,27.8,41.5,30,67.5H301.5z"/>
</svg>
